<?xml version="1.0" encoding="UTF-8"?>
<svg xmlns="http://www.w3.org/2000/svg" xmlns:xlink="http://www.w3.org/1999/xlink" width="35px" height="30px" viewBox="0 0 32 30" version="1.1">
<g id="surface1">
<path style=" stroke:none;fill-rule:nonzero;fill:rgb(71.764706%,8.627451%,8.627451%);fill-opacity:1;" d="M 0.613281 22.683594 L 11.792969 2.78125 L 11.835938 2.710938 C 12.296875 1.933594 12.921875 1.269531 13.660156 0.769531 C 14.367188 0.300781 15.191406 0.0507812 16.035156 0.046875 C 16.875 0.046875 17.699219 0.296875 18.40625 0.769531 C 19.148438 1.269531 19.769531 1.933594 20.230469 2.714844 C 20.265625 2.769531 20.296875 2.828125 20.324219 2.886719 L 31.324219 22.546875 L 31.382812 22.667969 C 31.796875 23.511719 32.007812 24.449219 32 25.398438 C 31.996094 26.179688 31.800781 26.949219 31.4375 27.636719 C 31.023438 28.402344 30.394531 29.023438 29.628906 29.410156 L 29.480469 29.480469 C 28.730469 29.8125 27.921875 29.96875 27.105469 29.945312 L 4.589844 29.945312 C 4.527344 29.945312 4.472656 29.945312 4.417969 29.945312 C 3.863281 29.941406 3.316406 29.835938 2.800781 29.636719 C 1.980469 29.316406 1.277344 28.746094 0.78125 28 C 0.285156 27.238281 0.0117188 26.347656 0 25.429688 C -0.0117188 24.628906 0.125 23.832031 0.410156 23.085938 C 0.460938 22.945312 0.527344 22.808594 0.609375 22.683594 Z M 0.613281 22.683594 "/>
<path style=" stroke:none;fill-rule:evenodd;fill:rgb(88.627451%,10.588235%,10.588235%);fill-opacity:1;" d="M 2.34375 23.84375 L 13.578125 3.84375 C 14.941406 1.632812 17.101562 1.574219 18.492188 3.84375 L 29.542969 23.601562 C 30.425781 25.425781 29.988281 27.890625 27.113281 27.828125 L 4.589844 27.828125 C 2.695312 27.878906 1.464844 26.171875 2.339844 23.84375 Z M 2.34375 23.84375 "/>
<path style=" stroke:none;fill-rule:nonzero;fill:rgb(100%,100%,100%);fill-opacity:1;" d="M 14.992188 22.21875 C 15.234375 21.96875 15.554688 21.820312 15.898438 21.792969 C 16.109375 21.78125 16.324219 21.8125 16.523438 21.890625 C 16.71875 21.96875 16.894531 22.085938 17.042969 22.238281 C 17.292969 22.492188 17.441406 22.832031 17.464844 23.191406 C 17.472656 23.316406 17.464844 23.441406 17.445312 23.566406 C 17.320312 24.296875 16.695312 24.824219 15.976562 24.800781 C 15.769531 24.796875 15.570312 24.75 15.382812 24.660156 C 15.050781 24.503906 14.789062 24.222656 14.648438 23.871094 C 14.605469 23.761719 14.574219 23.648438 14.558594 23.53125 C 14.539062 23.417969 14.535156 23.296875 14.542969 23.179688 C 14.5625 22.996094 14.613281 22.8125 14.691406 22.644531 C 14.757812 22.484375 14.859375 22.34375 14.984375 22.226562 Z M 17.117188 19.472656 C 17.0625 20.757812 14.953125 20.761719 14.902344 19.472656 C 14.6875 17.273438 14.140625 11.59375 14.160156 9.527344 C 14.179688 8.890625 14.679688 8.511719 15.347656 8.367188 C 15.777344 8.277344 16.21875 8.277344 16.648438 8.367188 C 17.328125 8.515625 17.859375 8.902344 17.859375 9.554688 L 17.859375 9.621094 Z M 17.117188 19.472656 "/>
</g>
</svg>
